# xmcd
#
# Track frame offsets: 
#        150
#        30532
#        53654
#        78910
#        101053
#        133520
#        162152
#        182372
#        200842
#        225763
#        271697
#
# Disc length: 4000 seconds
#
# Revision: 2
# Processed by: cddbd v1.5.2PL0 Copyright (c) Steve Scherf et al.
# Submitted via: ExactAudioCopy v0.99pb4
#
DISCID=7d0f9e0b
DTITLE=Pete Haycock`s True Blues - Live
DYEAR=2008
DGENRE=Blues
TTITLE0=01 Roadhouse Blues
TTITLE1=02 Love Sneakin' Up On You
TTITLE2=Lucienne
TTITLE3=04 They Call Me The Breeze
TTITLE4=05 Midnight Hours
TTITLE5=06 Feeling Alright
TTITLE6=Sleepwalk
TTITLE7=Lovetime
TTITLE8=Statesboro Blues
TTITLE9=10 So Many Roads
TTITLE10=11 Rocky Mountain Way
EXTD=
EXTT0=
EXTT1=
EXTT2=
EXTT3=
EXTT4=
EXTT5=
EXTT6=
EXTT7=
EXTT8=
EXTT9=
EXTT10=
PLAYORDER=
